<?xml version="1.0" encoding="UTF-8" standalone="no"?>
<!-- Generator: Adobe Illustrator 18.0.0, SVG Export Plug-In . SVG Version: 6.00 Build 0)  -->

<svg
   version="1.1"
   id="Capa_1"
   x="0px"
   y="0px"
   viewBox="0 0 438.254 438.254"
   style="enable-background:new 0 0 438.254 438.254;"
   xml:space="preserve"
   sodipodi:docname="credit-card-svgrepo-com.svg"
   inkscape:version="1.1.2 (b8e25be8, 2022-02-05)"
   xmlns:inkscape="http://www.inkscape.org/namespaces/inkscape"
   xmlns:sodipodi="http://sodipodi.sourceforge.net/DTD/sodipodi-0.dtd"
   xmlns="http://www.w3.org/2000/svg"
   xmlns:svg="http://www.w3.org/2000/svg"><defs
   id="defs49" /><sodipodi:namedview
   id="namedview47"
   pagecolor="#ffffff"
   bordercolor="#666666"
   borderopacity="1.0"
   inkscape:pageshadow="2"
   inkscape:pageopacity="0.0"
   inkscape:pagecheckerboard="0"
   showgrid="false"
   inkscape:zoom="1.4261136"
   inkscape:cx="219.127"
   inkscape:cy="219.127"
   inkscape:window-width="1440"
   inkscape:window-height="847"
   inkscape:window-x="0"
   inkscape:window-y="25"
   inkscape:window-maximized="0"
   inkscape:current-layer="Capa_1" />
<g
   id="g14">
	<path
   d="M402.612,177.546H368.25V63.187c0-19.652-15.988-35.64-35.64-35.64H35.641C15.988,27.547,0,43.535,0,63.187v161.88   c0,19.652,15.988,35.64,35.641,35.64h34.357v114.358c0,19.653,15.989,35.642,35.642,35.642h296.973   c19.652,0,35.642-15.989,35.642-35.642V213.188C438.254,193.535,422.265,177.546,402.612,177.546z M338.25,131.707H30v-20h308.25   V131.707z M35.641,57.547h296.97c3.109,0,5.64,2.53,5.64,5.64v28.52H30v-28.52C30,60.077,32.53,57.547,35.641,57.547z    M35.641,230.707c-3.11,0-5.641-2.53-5.641-5.64v-73.36h308.25v25.839H105.64c-19.652,0-35.642,15.989-35.642,35.642v17.519H35.641   z M408.254,375.065c0,3.111-2.531,5.642-5.642,5.642H105.64c-3.11,0-5.642-2.531-5.642-5.642V213.188   c0-3.111,2.531-5.642,5.642-5.642h296.973c3.11,0,5.642,2.531,5.642,5.642V375.065z"
   id="path2" />
	<path
   d="M358.585,287.966c-6.941,0-13.48,1.74-19.216,4.797c-5.885-3.15-12.429-4.797-19.265-4.797c-22.607,0-41,18.393-41,41   s18.393,41,41,41c6.835,0,13.379-1.647,19.265-4.796c5.736,3.057,12.276,4.796,19.216,4.796c22.607,0,41-18.393,41-41   S381.192,287.966,358.585,287.966z M299.104,328.966c0-11.579,9.421-21,21-21c1.065,0,2.113,0.09,3.145,0.243   c-3.593,6.093-5.664,13.186-5.664,20.757s2.071,14.664,5.664,20.757c-1.032,0.153-2.08,0.243-3.145,0.243   C308.524,349.966,299.104,340.546,299.104,328.966z M358.585,349.966c-11.579,0-21-9.421-21-21s9.421-21,21-21s21,9.421,21,21   S370.164,349.966,358.585,349.966z"
   id="path4" />
	<path
   d="M177.126,241.707h-28c-5.522,0-10,4.477-10,10s4.478,10,10,10h28c5.522,0,10-4.477,10-10S182.648,241.707,177.126,241.707z   "
   id="path6" />
	<path
   d="M237.793,241.707h-28c-5.522,0-10,4.477-10,10s4.478,10,10,10h28c5.522,0,10-4.477,10-10S243.315,241.707,237.793,241.707z   "
   id="path8" />
	<path
   d="M308.459,251.707c0-5.523-4.478-10-10-10h-28c-5.522,0-10,4.477-10,10s4.478,10,10,10h28   C303.981,261.707,308.459,257.23,308.459,251.707z"
   id="path10" />
	<path
   d="M331.126,261.707h28c5.522,0,10-4.477,10-10s-4.478-10-10-10h-28c-5.522,0-10,4.477-10,10S325.604,261.707,331.126,261.707   z"
   id="path12" />
</g>
<g
   id="g16">
</g>
<g
   id="g18">
</g>
<g
   id="g20">
</g>
<g
   id="g22">
</g>
<g
   id="g24">
</g>
<g
   id="g26">
</g>
<g
   id="g28">
</g>
<g
   id="g30">
</g>
<g
   id="g32">
</g>
<g
   id="g34">
</g>
<g
   id="g36">
</g>
<g
   id="g38">
</g>
<g
   id="g40">
</g>
<g
   id="g42">
</g>
<g
   id="g44">
</g>
</svg>
