<svg viewBox="0 0 80 80" xmlns="http://www.w3.org/2000/svg"><g stroke-linecap="round" stroke-linejoin="round"><path d="m35.81 18a10.56 10.56 0 1 0 10.56 10.54 10.56 10.56 0 0 0 -10.56-10.54z" fill="#fff" stroke="#002f6b" stroke-width="2"/><path d="m38.54 25.35a3.42 3.42 0 0 0 -2.87-1c-1.65.32-2.58 1.34-2 2.64s3.73 1.29 4.6 2.82-.27 2.89-2.27 2.96a3.67 3.67 0 0 1 -3-1.17" fill="none" stroke="#002f6b"/><path d="m36 33.53v1" fill="none" stroke="#002f6b"/><path d="m36 22.53v1.67" fill="none" stroke="#002f6b" stroke-width=".91"/><path d="m58.44 53.38a10.56 10.56 0 1 0 10.56 10.56 10.55 10.55 0 0 0 -10.56-10.56z" fill="#fff" stroke="#002f6b" stroke-width="2"/><path d="m11.69 53.55a10.56 10.56 0 1 0 10.56 10.56 10.56 10.56 0 0 0 -10.56-10.56z" fill="#fff" stroke="#002f6b" stroke-width="2"/><path d="m62.75 45.25-2.9 3.43-3.44-2.9" fill="none" stroke="#f15c67" stroke-width="2"/><path d="m23.32 78.07-.81-4.42 4.42-.81" fill="none" stroke="#f15c67" stroke-width="2"/><path d="m16.28 31.83 4.49.18-.18 4.49" fill="none" stroke="#f15c67" stroke-width="2"/><path d="m47.29 74.56a25 25 0 0 1 -23.83-.06" fill="none" stroke="#f15c67" stroke-width="2"/><path d="m50.67 32.77a25 25 0 0 1 9.33 15.23" fill="none" stroke="#f15c67" stroke-width="2"/><path d="m10.77 48.6a25 25 0 0 1 9.3-15.72" fill="none" stroke="#f15c67" stroke-width="2"/></g><text fill="#002f6b" font-family="Seravek-Light, Seravek" font-size="13" font-weight="300" transform="translate(54.98 69.01)">£</text><path d="m14.5 63.88v1.12h-1.7l-.3.48v.52h2v1h-2v2h-1v-2h-2v-1h2v-.52l-.32-.48h-1.68v-1.12h1.35l-1.64-3.88h1l1.91 4.82 1.88-4.82h.75l-1.63 3.85" fill="#002f6b"/></svg>