<?xml version="1.0" encoding="utf-8"?>
<!-- Svg Vector Icons : http://www.onlinewebfonts.com/icon -->
<!DOCTYPE svg PUBLIC "-//W3C//DTD SVG 1.1//EN" "http://www.w3.org/Graphics/SVG/1.1/DTD/svg11.dtd">
<svg version="1.1" xmlns="http://www.w3.org/2000/svg" xmlns:xlink="http://www.w3.org/1999/xlink" x="0px" y="0px" viewBox="0 0 1000 1000" enable-background="new 0 0 1000 1000" xml:space="preserve">
<metadata> Svg Vector Icons : http://www.onlinewebfonts.com/icon </metadata>
<g><path d="M499.9,990C263.1,990,71,798,71,561.2c0-170.7,100.5-316.4,245.1-385v141.3C242,373.3,193.6,461.3,193.6,561.2c0,169.2,137.2,306.2,306.3,306.2c169.2,0,306.4-137,306.4-306.2c0-99.9-48.4-188-122.5-243.7V176.2C828.4,244.8,929,390.5,929,561.2C929,798,736.9,990,499.9,990L499.9,990z M561.2,438.7c0,33.9-27.4,61.3-61.3,61.3c-33.8,0-61.2-27.4-61.2-61.3V71.2c0-33.8,27.4-61.2,61.2-61.2c33.9,0,61.3,27.4,61.3,61.2V438.7z"/></g>
</svg>